<svg version="1.1" id="Layer_1" xmlns="http://www.w3.org/2000/svg" xmlns:xlink="http://www.w3.org/1999/xlink" x="0px" y="0px"
	 width="100%" viewBox="0 0 1024 1024" enable-background="new 0 0 1024 1024" xml:space="preserve">
<path fill="#000000" opacity="1.000000" stroke="none" 
	d="
M609.615967,248.924896 
	C620.805603,241.848755 632.535095,240.693039 645.005676,242.544495 
	C648.645813,243.084915 652.634888,241.998184 656.352905,241.162720 
	C670.827576,237.910172 685.377930,238.306290 700.064270,239.220810 
	C710.514038,239.871506 720.492249,237.674332 729.045227,230.750885 
	C745.037170,217.805878 763.645691,217.695374 782.659973,220.607147 
	C786.257263,221.158020 789.152466,223.885513 792.234558,225.875671 
	C795.447083,227.950119 798.578003,230.451874 802.122009,231.655731 
	C812.758240,235.268616 820.446655,242.984314 828.517151,250.061020 
	C836.112122,256.720764 843.816406,263.269745 849.665955,271.815826 
	C857.950562,283.919373 861.781433,296.392059 856.559021,310.774536 
	C853.671143,318.727631 849.529602,326.240753 848.501770,334.863922 
	C847.237549,345.471710 843.945435,355.321960 839.394348,365.167084 
	C834.903076,374.882782 829.110779,384.798920 830.300049,396.355927 
	C831.202515,405.126465 831.728943,414.005585 833.555115,422.595642 
	C836.688110,437.332733 835.649475,451.331177 831.279846,465.844788 
	C827.132385,479.620422 819.619812,491.026489 810.477173,501.269897 
	C795.539978,518.005737 787.727417,537.792236 782.846680,559.067627 
	C780.645203,568.663940 777.953308,578.112305 775.264221,587.556213 
	C770.091614,605.722534 767.883423,624.455261 764.212402,642.904114 
	C759.261536,667.784363 750.998962,691.338501 738.543152,713.496521 
	C733.721436,722.074158 729.028015,730.642334 722.986755,738.459534 
	C719.903870,742.448608 716.453125,746.084351 712.726807,749.323181 
	C699.420715,760.888611 688.703247,774.637573 678.226746,788.662476 
	C672.235901,796.682373 665.259705,803.727356 656.686707,809.176941 
	C648.287476,814.515991 640.127625,820.242737 631.993347,825.984314 
	C623.700256,831.838074 614.066772,832.756409 604.471985,833.931335 
	C592.931763,835.344604 581.291870,835.612976 569.809143,837.902893 
	C558.973145,840.063843 549.754089,844.997375 541.568970,852.025757 
	C532.058044,860.192566 521.951965,867.430908 510.594818,872.740662 
	C502.294403,876.621399 493.144714,877.083984 484.226959,877.876587 
	C465.808563,879.513733 447.322784,880.146301 428.824646,880.024048 
	C417.442963,879.948792 406.236511,881.417725 395.079010,883.476501 
	C390.125427,884.390442 385.048615,884.688599 380.147430,883.787964 
	C358.358765,879.784119 336.681000,875.115845 315.543549,868.497803 
	C307.344025,865.930542 299.240967,862.612122 291.063843,859.981873 
	C278.122528,855.819153 264.936890,854.366760 251.910721,861.711243 
	C242.814560,866.839905 233.098831,865.980347 223.708099,860.831970 
	C214.396179,855.726929 205.003860,850.793213 195.181152,846.592590 
	C189.008438,843.952820 182.361038,841.482483 177.098297,837.279602 
	C168.080124,830.077576 165.967728,819.788757 167.425537,808.841187 
	C168.324310,802.091797 170.185303,795.474365 171.512634,788.777466 
	C174.372696,774.347351 167.557877,763.797974 156.931366,755.573242 
	C149.984741,750.196777 141.939972,746.274292 133.020355,744.692017 
	C124.723724,743.220276 119.187592,737.902710 114.645569,731.216919 
	C106.963699,719.909363 102.845711,706.993713 98.046165,694.401367 
	C96.126915,689.365906 96.720016,683.857544 96.101326,678.575317 
	C92.789993,650.303772 95.289490,622.483459 102.102562,594.865662 
	C105.522583,581.002136 104.253601,566.676392 103.702461,552.534302 
	C103.154350,538.469482 103.531792,524.332764 107.595047,510.954803 
	C111.565666,497.881897 112.932785,484.564117 114.872963,471.241943 
	C116.336830,461.190460 117.400345,451.040649 119.590721,441.144592 
	C122.722908,426.993469 129.686966,414.575928 138.744247,403.269775 
	C146.723206,393.309662 154.234100,382.969482 162.348816,373.124451 
	C174.503510,358.378052 184.490265,341.904114 198.569611,328.674347 
	C210.531387,317.434357 224.165009,309.643311 239.447861,303.513641 
	C257.509796,296.269348 276.000336,292.136658 295.144806,290.591827 
	C310.755463,289.332184 326.435608,288.956451 341.749268,293.602325 
	C349.438141,295.934967 357.316742,297.111572 365.399414,297.050507 
	C379.223450,296.946045 393.055603,297.415131 406.848480,295.988129 
	C412.181549,295.436340 417.505737,294.641388 422.428070,292.589020 
	C431.142090,288.955688 440.223663,287.226501 449.509430,285.978821 
	C465.686615,283.805084 480.910156,278.701080 495.109833,270.536438 
	C501.864258,266.652710 509.407806,264.479004 517.062805,264.312592 
	C532.975403,263.966675 548.052368,259.973846 562.885925,254.923492 
	C574.616150,250.929733 586.671448,250.327637 598.817871,249.917038 
	C602.307007,249.799072 605.825012,250.154175 609.615967,248.924896 
M252.696548,695.783386 
	C260.527283,703.173706 267.043365,711.748962 275.377747,718.797607 
	C288.000854,729.473206 301.395752,738.817688 315.882660,746.564209 
	C339.853027,759.381775 365.717194,766.494934 392.666718,768.434265 
	C415.379303,770.068726 438.188324,768.900452 460.418732,763.086853 
	C482.238281,757.380615 502.834900,748.722595 521.808960,736.385071 
	C532.390686,729.504517 542.289673,721.661316 551.291077,712.926086 
	C557.376038,707.021118 563.480591,701.160767 570.083679,695.906494 
	C577.465332,690.032776 585.716980,685.229492 592.937683,679.181458 
	C609.097473,665.645935 619.294617,647.771057 627.644958,628.794250 
	C634.290588,613.691406 637.960632,597.629517 641.580811,581.621948 
	C645.922302,562.424500 649.343994,543.035767 652.657654,523.630371 
	C654.944885,510.235596 657.746399,496.938232 660.591736,483.644592 
	C664.737549,464.275238 670.435181,445.483307 679.020569,427.598358 
	C685.838806,413.394745 694.530151,400.628357 706.228271,389.887665 
	C713.000732,383.669464 720.428101,378.626404 728.646912,374.666656 
	C740.834473,368.794861 753.671936,365.552643 767.118225,363.687317 
	C782.531738,361.549072 797.835083,362.234711 813.207275,362.962402 
	C814.609863,363.028778 816.264526,364.381775 817.126587,362.424103 
	C817.896057,360.676697 816.176147,359.701935 815.115295,358.793518 
	C806.521057,351.434052 798.805481,343.108307 791.014343,335.006744 
	C778.919189,322.429657 766.184814,310.505707 754.155884,297.867249 
	C743.180725,286.335968 731.017395,275.910919 720.368469,264.104706 
	C715.432556,258.632385 709.869507,257.420715 703.708252,257.418488 
	C686.611389,257.412292 669.462769,256.121429 652.449036,259.278412 
	C639.115723,261.752472 626.492981,265.973419 614.902832,273.077850 
	C605.104187,279.084137 596.567810,286.492798 589.392761,295.534088 
	C583.058044,303.516357 577.519287,312.029816 573.398193,321.271271 
	C567.792175,333.842682 562.766846,346.615356 559.458130,360.130859 
	C555.607788,375.858917 551.012024,391.385437 549.299744,407.559570 
	C549.125977,409.200867 549.117615,411.148560 547.418579,411.890991 
	C545.632690,412.671356 544.316711,411.236786 543.113708,410.063599 
	C538.348328,405.416443 532.918457,401.364594 527.483582,397.824158 
	C514.316528,389.246826 500.775696,381.335815 485.949249,375.435242 
	C466.111359,367.540344 445.726746,362.786407 424.641235,361.553558 
	C407.087708,360.527283 389.464111,361.108704 372.002777,364.298492 
	C344.449280,369.331909 319.213776,380.146149 296.039429,395.441071 
	C279.146576,406.590240 264.157440,420.163818 251.500336,436.193146 
	C235.279449,456.735779 222.817093,479.114441 215.281296,504.327698 
	C209.870926,522.429688 206.677414,540.747375 206.341919,559.601562 
	C206.045486,576.260132 207.392639,592.676697 210.899719,609.072998 
	C214.047424,623.789185 218.680893,637.863342 224.925034,651.426697 
	C232.166336,667.156128 241.272263,681.793152 252.696548,695.783386 
z"/>
<path fill="#000000" opacity="1.000000" stroke="none" 
	d="
M516.831665,482.652344 
	C507.117157,503.509094 481.561310,513.681702 461.240662,505.942596 
	C440.862305,498.181488 430.601288,486.089203 429.057343,462.982849 
	C428.195984,450.092194 433.411255,438.471558 443.334503,428.848663 
	C453.567261,418.925598 465.293732,414.865448 478.970398,415.732300 
	C492.562378,416.593781 503.571045,422.532623 511.952667,433.544220 
	C521.148682,445.625793 523.239380,459.007965 520.235352,473.465912 
	C519.603088,476.508820 518.109314,479.372711 516.831665,482.652344 
z"/>
<path fill="#000000" opacity="1.000000" stroke="none" 
	d="
M284.968018,671.204102 
	C272.467041,664.044189 264.657654,653.734863 261.631775,640.038818 
	C258.226685,624.626221 262.536682,611.207458 272.807007,599.486755 
	C281.486389,589.581665 292.652527,584.297791 305.545502,583.849365 
	C316.884949,583.455017 327.497009,587.237305 336.279022,594.557495 
	C348.154755,604.456421 354.490204,617.545959 353.184967,632.952332 
	C351.878418,648.374390 345.494965,661.266907 331.135376,669.687805 
	C323.518280,674.154663 315.586029,676.917969 307.275360,676.893738 
	C299.830627,676.872070 292.048676,675.487122 284.968018,671.204102 
z"/>
<path fill="#000000" opacity="1.000000" stroke="none" 
	d="
M484.384247,698.933472 
	C483.175507,723.197083 464.079559,742.829529 439.618774,743.437195 
	C427.210205,743.745544 416.053436,739.977661 407.599426,732.114746 
	C396.110352,721.428894 389.450958,707.691711 392.327881,690.969666 
	C395.045227,675.174866 403.419495,663.765625 417.471680,655.990356 
	C432.658600,647.587219 454.156647,649.849609 467.322235,661.151062 
	C478.901733,671.091003 484.837311,683.216797 484.384247,698.933472 
z"/>
<path fill="#000000" opacity="1.000000" stroke="none" 
	d="
M376.382935,483.101746 
	C376.883911,499.329010 370.439911,512.159424 358.266388,521.457703 
	C342.507507,533.494629 322.338593,535.145264 303.621979,522.852539 
	C287.441925,512.225769 279.543396,487.927185 285.895721,470.520020 
	C291.782288,454.389130 302.993195,443.938843 319.714691,439.799377 
	C335.664337,435.850983 350.092438,440.345703 361.690063,450.942230 
	C370.532745,459.021667 376.043549,469.952332 376.382935,483.101746 
z"/>
<path fill="#000000" opacity="1.000000" stroke="none" 
	d="
M524.445007,550.138855 
	C543.420044,543.101318 560.498474,546.686279 574.599915,559.828857 
	C582.657043,567.338135 587.766418,577.497131 588.476868,589.329590 
	C589.528503,606.843262 582.992615,620.790588 568.969116,630.764282 
	C556.620178,639.546936 542.953613,641.329346 527.998413,637.074951 
	C509.527557,631.820496 494.470276,610.219482 495.778961,591.690186 
	C497.128632,572.580444 507.039154,558.887390 524.445007,550.138855 
z"/>
<path fill="#000000" opacity="1.000000" stroke="none" 
	d="
M418.262695,574.330322 
	C409.984711,580.748901 400.301636,575.585876 398.259430,568.492004 
	C396.759277,563.281128 398.375549,558.807373 403.792389,554.851135 
	C407.648712,552.034668 413.295593,551.969604 417.346039,554.694885 
	C420.941406,557.113953 423.335938,563.832703 421.835480,568.029236 
	C421.067993,570.175903 420.360474,572.457336 418.262695,574.330322 
z"/>
<path fill="#000000" opacity="1.000000" stroke="none" 
	d="
M748.278320,336.113220 
	C755.760498,335.856506 762.886841,335.750336 770.013184,335.647095 
	C772.397705,335.612549 773.978699,337.039703 775.535339,338.599426 
	C779.153259,342.224243 782.372070,346.246979 786.421509,350.552582 
	C782.792725,350.552582 779.163879,350.567993 775.535156,350.547638 
	C772.718140,350.531860 769.864929,350.173523 767.094421,350.512451 
	C764.166870,350.870636 761.060913,352.512451 758.476746,350.428375 
	C754.227600,347.001617 750.222717,343.226288 747.020203,338.742065 
	C746.341003,337.790955 746.959595,336.855133 748.278320,336.113220 
z"/>
<path fill="#000000" opacity="1.000000" stroke="none" 
	d="
M623.067017,541.037842 
	C623.790466,541.746582 624.264526,542.210938 624.733826,542.680054 
	C637.272949,555.213318 635.289734,550.884766 631.231934,568.975708 
	C630.752441,571.113647 630.861572,573.597046 629.052612,575.724182 
	C625.547363,574.922974 623.650146,571.967712 621.690918,569.555969 
	C620.037231,567.520264 618.734619,565.180420 616.561096,563.615540 
	C615.279724,562.692993 615.066284,561.717529 615.427917,560.218262 
	C616.897339,554.126648 618.332703,548.022888 619.572510,541.881653 
	C620.109070,539.223816 621.119385,539.320618 623.067017,541.037842 
z"/>
<path fill="#000000" opacity="1.000000" stroke="none" 
	d="
M628.084106,291.923126 
	C636.002502,299.743164 636.611145,298.504822 626.903442,306.624176 
	C624.757996,308.418579 622.608093,310.207642 620.101135,312.298737 
	C616.132446,309.172852 612.688049,305.154510 608.292664,302.238953 
	C606.233521,300.873108 606.077026,298.259308 608.094421,296.140167 
	C609.691650,294.462341 611.146484,292.626526 612.877014,291.102020 
	C619.965515,284.857300 621.366516,284.945435 628.084106,291.923126 
z"/>
<path fill="#000000" opacity="1.000000" stroke="none" 
	d="
M623.774963,519.599854 
	C625.129639,511.752838 626.532837,504.307678 628.080627,496.095001 
	C633.973389,500.008209 637.204285,505.553772 641.784607,509.674957 
	C642.099365,509.958160 642.248718,510.612335 642.211060,511.072296 
	C641.593689,518.607910 640.067627,525.943420 637.544861,534.085999 
	C632.427429,529.024414 627.638489,525.016968 623.774963,519.599854 
z"/>
<path fill="#000000" opacity="1.000000" stroke="none" 
	d="
M680.860352,273.140717 
	C679.279297,270.884644 676.616333,269.787872 676.479675,266.918884 
	C677.959961,264.989838 680.081055,265.236816 681.988464,265.252899 
	C687.638916,265.300446 693.287659,265.533783 698.937805,265.663147 
	C700.278198,265.693848 701.825867,265.475861 702.756226,266.464722 
	C706.778870,270.740112 710.661499,275.147308 714.629456,279.544617 
	C713.215393,280.650696 711.163330,280.840881 708.974060,280.719818 
	C703.008362,280.389862 697.023865,279.653564 691.090393,280.975647 
	C688.802063,281.485596 687.818970,279.783020 686.525391,278.574219 
	C684.701416,276.869751 682.912109,275.128174 680.860352,273.140717 
z"/>
<path fill="#000000" opacity="1.000000" stroke="none" 
	d="
M654.617432,449.016479 
	C650.864868,445.517975 647.421631,442.173981 643.931458,438.879822 
	C642.026367,437.081757 641.549866,435.251312 642.576782,432.640381 
	C644.210693,428.486084 645.225342,424.092316 646.749878,419.889771 
	C648.293091,415.635742 650.075012,415.436737 653.019653,418.793335 
	C655.321411,421.417084 657.773376,423.908600 660.129822,426.485199 
	C660.913086,427.341705 661.861328,428.173279 662.292236,429.201447 
	C663.401184,431.847565 657.552490,447.365112 654.617432,449.016479 
z"/>
<path fill="#000000" opacity="1.000000" stroke="none" 
	d="
M632.492126,475.303162 
	C633.806702,468.530518 634.552002,462.028961 636.955383,454.412018 
	C641.932312,459.427307 646.186584,463.693848 650.408691,467.992004 
	C651.019775,468.614014 651.064270,469.438293 650.882202,470.312927 
	C649.482361,477.034210 648.113037,483.761871 646.732117,490.498169 
	C641.788025,489.244141 632.614441,479.613739 632.492126,475.303162 
z"/>
<path fill="#000000" opacity="1.000000" stroke="none" 
	d="
M664.057495,407.999084 
	C655.586487,399.053406 655.558655,399.037903 661.331848,388.667450 
	C662.592163,386.403595 664.129272,384.293854 665.809265,381.694977 
	C671.259521,385.360107 674.964417,390.256805 679.174011,394.591309 
	C680.486450,395.942688 679.845154,397.607788 678.745728,398.615540 
	C675.685669,401.420410 674.468323,405.340332 672.781860,408.824829 
	C670.915161,412.681915 669.356323,412.758362 666.626465,410.137268 
	C665.910583,409.449921 665.109619,408.851257 664.057495,407.999084 
z"/>
<path fill="#000000" opacity="1.000000" stroke="none" 
	d="
M639.773071,283.170715 
	C634.510559,277.736877 635.058044,275.711365 642.007324,273.721710 
	C642.962952,273.448120 643.920166,273.154297 644.896423,272.982574 
	C648.581238,272.334412 652.291992,268.476837 655.658813,270.605408 
	C660.685791,273.783508 665.575073,277.692291 668.264465,284.147644 
	C662.434875,286.257690 656.821472,288.532471 651.047424,290.275024 
	C648.239258,291.122498 646.117126,288.856781 644.113403,287.104523 
	C642.734985,285.899109 641.392029,284.653107 639.773071,283.170715 
z"/>
<path fill="#000000" opacity="1.000000" stroke="none" 
	d="
M684.581787,360.503326 
	C686.388794,359.068604 688.039124,357.991608 689.553833,356.749298 
	C690.949158,355.604858 691.994141,356.203369 693.033142,357.173523 
	C697.138123,361.006439 701.229980,364.853363 705.770752,369.111481 
	C700.756592,373.790009 695.852417,377.166107 691.980896,381.618286 
	C691.064636,382.671967 689.843933,382.597595 688.938477,381.557770 
	C686.411316,378.655273 683.030701,376.727936 680.341980,374.073395 
	C675.774048,369.563507 676.939026,366.097687 684.581787,360.503326 
z"/>
<path fill="#000000" opacity="1.000000" stroke="none" 
	d="
M563.687378,397.015564 
	C564.545837,393.095459 565.354004,389.588928 566.225952,385.805542 
	C570.390625,386.095337 571.773560,389.837250 574.417908,391.757416 
	C579.896606,395.735748 582.147217,400.714691 579.393188,407.446594 
	C577.694397,411.598969 578.825012,416.733124 574.683044,420.875061 
	C570.546021,416.657684 565.968689,412.967041 562.723755,408.341705 
	C560.546692,405.238495 563.112183,401.097565 563.687378,397.015564 
z"/>
<path fill="#000000" opacity="1.000000" stroke="none" 
	d="
M580.625610,375.370605 
	C579.559875,374.304810 578.724976,373.496307 577.853149,372.729767 
	C571.174438,366.857208 571.167175,366.802429 574.132568,358.405182 
	C575.399841,354.816437 576.594482,351.201996 577.870239,347.616364 
	C578.019470,347.197021 578.475830,346.886963 579.266357,345.978729 
	C583.695007,350.240051 588.054443,354.420624 592.392151,358.623596 
	C593.050171,359.261169 593.113647,360.127533 592.815613,360.945557 
	C590.562073,367.131775 588.281738,373.308258 586.046448,379.387939 
	C582.902405,379.567383 582.250183,377.115387 580.625610,375.370605 
z"/>
<path fill="#000000" opacity="1.000000" stroke="none" 
	d="
M600.682251,315.315430 
	C609.461548,325.244110 609.462646,325.244659 603.742981,336.615387 
	C603.146362,337.801392 602.488586,338.958069 601.927979,340.160400 
	C600.763550,342.658051 599.264526,342.876801 597.346008,340.944977 
	C594.065491,337.641754 590.814148,334.307098 587.453735,331.086731 
	C586.136414,329.824249 586.078796,328.627960 586.795654,327.088989 
	C589.247131,321.826080 591.985352,316.749847 595.675903,312.351105 
	C598.020752,312.259277 599.055176,313.950623 600.682251,315.315430 
z"/>
<path fill="#000000" opacity="1.000000" stroke="none" 
	d="
M719.367920,361.087219 
	C714.158386,357.251190 709.433777,353.404541 706.776123,347.733795 
	C718.700378,337.263641 734.419250,340.550537 738.069824,354.421509 
	C732.001648,356.656830 725.873169,358.914337 719.367920,361.087219 
z"/>
<path fill="#000000" opacity="1.000000" stroke="none" 
	d="
M615.103638,612.719727 
	C609.477661,609.515015 610.405640,604.524597 611.298157,599.957886 
	C612.283813,594.914612 611.486633,589.515564 613.783691,584.658508 
	C621.540710,587.557922 624.574219,593.281555 622.511780,600.644043 
	C621.443787,604.456787 620.264282,608.238464 619.117981,612.029053 
	C618.391052,614.433044 617.197327,615.066895 615.103638,612.719727 
z"/>
<path fill="#000000" opacity="1.000000" stroke="none" 
	d="
M601.330933,647.572144 
	C598.479492,647.486450 597.768738,645.672974 598.530334,643.643921 
	C600.651306,637.992798 603.066772,632.452209 605.423279,626.728577 
	C609.487305,628.002197 610.812622,630.267395 609.296631,634.255676 
	C607.459839,639.088196 604.816772,643.394409 601.330933,647.572144 
z"/>
</svg>